# xmcd
#
# Track frame offsets: 
#        150
#        130360
#        146747
#        147218
#        150091
#        164793
#        165815
#        176421
#        183254
#        190199
#        194919
#        197896
#        200253
#        203965
#        204776
#        208397
#        210916
#        212307
#        217591
#        231356
#        236282
#        259177
#        271474
#        284785
#        310936
#        319253
#        322255
#        325167
#        329738
#
# Disc length: 4797 seconds
#
# Revision: 0
# Processed by: cddbd v1.5.2PL0 Copyright (c) Steve Scherf et al.
# Submitted via: ExactAudioCopy v0.95b3
#
DISCID=c612bb1d
DTITLE=The Beatles  - AB  Road - Complete Purple Chick Set v1.1 Jan.13
DTITLE=Various Artist - D3  FLAC
DYEAR=1900
DGENRE=
TTITLE0=Dialogue Lunchroom Tape
TTITLE1=Instrumental 13.08
TTITLE2=Instrumental 13.09
TTITLE3=Instrumental 13.10
TTITLE4=Instrumental 13.11
TTITLE5=Dig A Pony 13.12
TTITLE6=Instrumental 13.13
TTITLE7=Dig A Pony 13.14
TTITLE8=Get Back 13.15
TTITLE9=Instrumental 13.16
TTITLE10=Get Back 13.17
TTITLE11=Get Back 13.18
TTITLE12=Get Back 13.19
TTITLE13=Get Back 13.20
TTITLE14=Get Back 13.21
TTITLE15=Get Back 13.22
TTITLE16=Get Back 13.23
TTITLE17=Get Back 13.24
TTITLE18=Instrumental 13.25
TTITLE19=Instrumental 13.26
TTITLE20=Get Back 13.27
TTITLE21=Get Back 13.28
TTITLE22=Get Back 13.29
TTITLE23=Get Back 13.30
TTITLE24=Get Back 13.31
TTITLE25=Get Back 13.32
TTITLE26=On The Road Again 13.33
TTITLE27=Improvisation 13.34
TTITLE28=Dialogue
EXTD=
EXTT0=
EXTT1=
EXTT2=
EXTT3=
EXTT4=
EXTT5=
EXTT6=
EXTT7=
EXTT8=
EXTT9=
EXTT10=
EXTT11=
EXTT12=
EXTT13=
EXTT14=
EXTT15=
EXTT16=
EXTT17=
EXTT18=
EXTT19=
EXTT20=
EXTT21=
EXTT22=
EXTT23=
EXTT24=
EXTT25=
EXTT26=
EXTT27=
EXTT28=
PLAYORDER=
